<mxfile host="Electron" agent="Mozilla/5.0 (Macintosh; Intel Mac OS X 10_15_7) AppleWebKit/537.36 (KHTML, like Gecko) draw.io/27.0.9 Chrome/134.0.6998.205 Electron/35.4.0 Safari/537.36" version="27.0.9">
  <diagram name="Page-1" id="49Lg0eTtkR6W4DAaWvmi">
    <mxGraphModel dx="1152" dy="1049" grid="1" gridSize="10" guides="1" tooltips="1" connect="1" arrows="1" fold="1" page="1" pageScale="1" pageWidth="3300" pageHeight="4681" math="0" shadow="0">
      <root>
        <mxCell id="0" />
        <mxCell id="1" parent="0" />
        <mxCell id="DTjPPuVU_EcfSdGKcNvC-1" value="POST /search/insert (Api1)&#xa;latitude, longitude, distance_radius, Start, End" style="whiteSpace=wrap;strokeWidth=2;fillColor=#fff2cc;strokeColor=#d6b656;" vertex="1" parent="1">
          <mxGeometry x="470" y="90" width="260" height="56" as="geometry" />
        </mxCell>
        <mxCell id="DTjPPuVU_EcfSdGKcNvC-2" value="Recibe SearchID de Api1" style="whiteSpace=wrap;strokeWidth=2;fillColor=#fff2cc;strokeColor=#d6b656;" vertex="1" parent="1">
          <mxGeometry x="484" y="160" width="232" height="54" as="geometry" />
        </mxCell>
        <mxCell id="DTjPPuVU_EcfSdGKcNvC-3" value="POST /hotels/availability (Api Integration)&#xa;SearchID" style="whiteSpace=wrap;strokeWidth=2;fillColor=#fff2cc;strokeColor=#d6b656;" vertex="1" parent="1">
          <mxGeometry x="470" y="240" width="260" height="78" as="geometry" />
        </mxCell>
        <mxCell id="DTjPPuVU_EcfSdGKcNvC-33" style="edgeStyle=orthogonalEdgeStyle;rounded=0;orthogonalLoop=1;jettySize=auto;html=1;exitX=0;exitY=0.5;exitDx=0;exitDy=0;entryX=1;entryY=0.5;entryDx=0;entryDy=0;" edge="1" parent="1" source="DTjPPuVU_EcfSdGKcNvC-4" target="DTjPPuVU_EcfSdGKcNvC-5">
          <mxGeometry relative="1" as="geometry" />
        </mxCell>
        <mxCell id="DTjPPuVU_EcfSdGKcNvC-34" style="edgeStyle=orthogonalEdgeStyle;rounded=0;orthogonalLoop=1;jettySize=auto;html=1;exitX=1;exitY=0.5;exitDx=0;exitDy=0;entryX=0;entryY=0.5;entryDx=0;entryDy=0;" edge="1" parent="1" source="DTjPPuVU_EcfSdGKcNvC-4" target="DTjPPuVU_EcfSdGKcNvC-10">
          <mxGeometry relative="1" as="geometry" />
        </mxCell>
        <mxCell id="DTjPPuVU_EcfSdGKcNvC-4" value="Filtrar hoteles con availability &amp;gt; 0" style="whiteSpace=wrap;strokeWidth=2;fillColor=#fff2cc;strokeColor=#d6b656;" vertex="1" parent="1">
          <mxGeometry x="470" y="350" width="260" height="78" as="geometry" />
        </mxCell>
        <mxCell id="DTjPPuVU_EcfSdGKcNvC-5" value="Por cada hotel candidato" style="rhombus;strokeWidth=2;whiteSpace=wrap;fillColor=#fff2cc;strokeColor=#d6b656;" vertex="1" parent="1">
          <mxGeometry x="188.5" y="366.25" width="233" height="45.5" as="geometry" />
        </mxCell>
        <mxCell id="DTjPPuVU_EcfSdGKcNvC-6" value="POST /query/list6 (Api1)&#xa;ProductID = hotel_id" style="whiteSpace=wrap;strokeWidth=2;fillColor=#fff2cc;strokeColor=#d6b656;" vertex="1" parent="1">
          <mxGeometry x="232.5" y="450" width="145" height="40" as="geometry" />
        </mxCell>
        <mxCell id="DTjPPuVU_EcfSdGKcNvC-36" style="edgeStyle=orthogonalEdgeStyle;rounded=0;orthogonalLoop=1;jettySize=auto;html=1;exitX=0;exitY=0.5;exitDx=0;exitDy=0;" edge="1" parent="1" source="DTjPPuVU_EcfSdGKcNvC-7" target="DTjPPuVU_EcfSdGKcNvC-8">
          <mxGeometry relative="1" as="geometry" />
        </mxCell>
        <mxCell id="DTjPPuVU_EcfSdGKcNvC-40" value="SI" style="edgeLabel;html=1;align=center;verticalAlign=middle;resizable=0;points=[];" vertex="1" connectable="0" parent="DTjPPuVU_EcfSdGKcNvC-36">
          <mxGeometry x="0.0458" y="2" relative="1" as="geometry">
            <mxPoint as="offset" />
          </mxGeometry>
        </mxCell>
        <mxCell id="DTjPPuVU_EcfSdGKcNvC-37" style="edgeStyle=orthogonalEdgeStyle;rounded=0;orthogonalLoop=1;jettySize=auto;html=1;exitX=1;exitY=0.5;exitDx=0;exitDy=0;entryX=0.5;entryY=0;entryDx=0;entryDy=0;" edge="1" parent="1" source="DTjPPuVU_EcfSdGKcNvC-7" target="DTjPPuVU_EcfSdGKcNvC-9">
          <mxGeometry relative="1" as="geometry" />
        </mxCell>
        <mxCell id="DTjPPuVU_EcfSdGKcNvC-41" value="NO" style="edgeLabel;html=1;align=center;verticalAlign=middle;resizable=0;points=[];" vertex="1" connectable="0" parent="DTjPPuVU_EcfSdGKcNvC-37">
          <mxGeometry x="-0.2362" y="-1" relative="1" as="geometry">
            <mxPoint as="offset" />
          </mxGeometry>
        </mxCell>
        <mxCell id="DTjPPuVU_EcfSdGKcNvC-7" value="SkuList tiene Availability &amp;gt; 0?" style="rhombus;strokeWidth=2;whiteSpace=wrap;fillColor=#fff2cc;strokeColor=#d6b656;" vertex="1" parent="1">
          <mxGeometry x="166" y="530" width="278" height="50" as="geometry" />
        </mxCell>
        <mxCell id="DTjPPuVU_EcfSdGKcNvC-8" value="Match&#xa;(Verdadero positivo)" style="whiteSpace=wrap;strokeWidth=2;fillColor=#fff2cc;strokeColor=#d6b656;" vertex="1" parent="1">
          <mxGeometry x="80" y="660" width="130" height="40" as="geometry" />
        </mxCell>
        <mxCell id="DTjPPuVU_EcfSdGKcNvC-9" value="Falso positivo&#xa;(cache dijo sí, live dijo no)" style="whiteSpace=wrap;strokeWidth=2;fillColor=#fff2cc;strokeColor=#d6b656;" vertex="1" parent="1">
          <mxGeometry x="390" y="660" width="150" height="50" as="geometry" />
        </mxCell>
        <mxCell id="DTjPPuVU_EcfSdGKcNvC-10" value="Hoteles con availability = 0" style="whiteSpace=wrap;strokeWidth=2;fillColor=#fff2cc;strokeColor=#d6b656;" vertex="1" parent="1">
          <mxGeometry x="782.5" y="371" width="167.5" height="36" as="geometry" />
        </mxCell>
        <mxCell id="DTjPPuVU_EcfSdGKcNvC-38" style="edgeStyle=orthogonalEdgeStyle;rounded=0;orthogonalLoop=1;jettySize=auto;html=1;exitX=0;exitY=0.5;exitDx=0;exitDy=0;entryX=0.5;entryY=0;entryDx=0;entryDy=0;" edge="1" parent="1" source="DTjPPuVU_EcfSdGKcNvC-11" target="DTjPPuVU_EcfSdGKcNvC-12">
          <mxGeometry relative="1" as="geometry" />
        </mxCell>
        <mxCell id="DTjPPuVU_EcfSdGKcNvC-42" value="SI" style="edgeLabel;html=1;align=center;verticalAlign=middle;resizable=0;points=[];" vertex="1" connectable="0" parent="DTjPPuVU_EcfSdGKcNvC-38">
          <mxGeometry x="-0.267" y="-1" relative="1" as="geometry">
            <mxPoint as="offset" />
          </mxGeometry>
        </mxCell>
        <mxCell id="DTjPPuVU_EcfSdGKcNvC-39" style="edgeStyle=orthogonalEdgeStyle;rounded=0;orthogonalLoop=1;jettySize=auto;html=1;exitX=1;exitY=0.5;exitDx=0;exitDy=0;entryX=0.5;entryY=0;entryDx=0;entryDy=0;" edge="1" parent="1" source="DTjPPuVU_EcfSdGKcNvC-11" target="DTjPPuVU_EcfSdGKcNvC-13">
          <mxGeometry relative="1" as="geometry" />
        </mxCell>
        <mxCell id="DTjPPuVU_EcfSdGKcNvC-43" value="NO" style="edgeLabel;html=1;align=center;verticalAlign=middle;resizable=0;points=[];" vertex="1" connectable="0" parent="DTjPPuVU_EcfSdGKcNvC-39">
          <mxGeometry x="0.0809" y="-3" relative="1" as="geometry">
            <mxPoint y="-1" as="offset" />
          </mxGeometry>
        </mxCell>
        <mxCell id="DTjPPuVU_EcfSdGKcNvC-11" value="Verificar con /query/list6" style="rhombus;strokeWidth=2;whiteSpace=wrap;fillColor=#fff2cc;strokeColor=#d6b656;" vertex="1" parent="1">
          <mxGeometry x="747.25" y="470" width="238" height="40" as="geometry" />
        </mxCell>
        <mxCell id="DTjPPuVU_EcfSdGKcNvC-12" value="Falso negativo&#xa;(cache dijo no, live dijo sí)" style="whiteSpace=wrap;strokeWidth=2;fillColor=#fff2cc;strokeColor=#d6b656;" vertex="1" parent="1">
          <mxGeometry x="632.5" y="655" width="150" height="50" as="geometry" />
        </mxCell>
        <mxCell id="DTjPPuVU_EcfSdGKcNvC-13" value="Verdadero negativo" style="whiteSpace=wrap;strokeWidth=2;fillColor=#fff2cc;strokeColor=#d6b656;" vertex="1" parent="1">
          <mxGeometry x="960" y="666" width="119" height="28" as="geometry" />
        </mxCell>
        <mxCell id="DTjPPuVU_EcfSdGKcNvC-14" value="Generar métricas&#xa;Precisión, Recall, F1, FP/FN" style="whiteSpace=wrap;strokeWidth=2;fillColor=#fff2cc;strokeColor=#d6b656;" vertex="1" parent="1">
          <mxGeometry x="484" y="788" width="185" height="52" as="geometry" />
        </mxCell>
        <mxCell id="DTjPPuVU_EcfSdGKcNvC-15" value="" style="curved=1;startArrow=none;endArrow=block;exitX=0.5;exitY=1;entryX=0.5;entryY=0;rounded=0;" edge="1" parent="1" source="DTjPPuVU_EcfSdGKcNvC-1" target="DTjPPuVU_EcfSdGKcNvC-2">
          <mxGeometry relative="1" as="geometry">
            <Array as="points" />
          </mxGeometry>
        </mxCell>
        <mxCell id="DTjPPuVU_EcfSdGKcNvC-16" value="" style="curved=1;startArrow=none;endArrow=block;exitX=0.5;exitY=1;entryX=0.5;entryY=0;rounded=0;" edge="1" parent="1" source="DTjPPuVU_EcfSdGKcNvC-2" target="DTjPPuVU_EcfSdGKcNvC-3">
          <mxGeometry relative="1" as="geometry">
            <Array as="points" />
          </mxGeometry>
        </mxCell>
        <mxCell id="DTjPPuVU_EcfSdGKcNvC-17" value="" style="curved=1;startArrow=none;endArrow=block;exitX=0.5;exitY=1;entryX=0.5;entryY=0;rounded=0;" edge="1" parent="1" source="DTjPPuVU_EcfSdGKcNvC-3" target="DTjPPuVU_EcfSdGKcNvC-4">
          <mxGeometry relative="1" as="geometry">
            <Array as="points" />
          </mxGeometry>
        </mxCell>
        <mxCell id="DTjPPuVU_EcfSdGKcNvC-19" value="" style="curved=1;startArrow=none;endArrow=block;exitX=0.5;exitY=1;entryX=0.5;entryY=0;rounded=0;" edge="1" parent="1" source="DTjPPuVU_EcfSdGKcNvC-5" target="DTjPPuVU_EcfSdGKcNvC-6">
          <mxGeometry relative="1" as="geometry">
            <Array as="points" />
          </mxGeometry>
        </mxCell>
        <mxCell id="DTjPPuVU_EcfSdGKcNvC-20" value="" style="curved=1;startArrow=none;endArrow=block;exitX=0.5;exitY=1;entryX=0.5;entryY=0;rounded=0;" edge="1" parent="1" source="DTjPPuVU_EcfSdGKcNvC-6" target="DTjPPuVU_EcfSdGKcNvC-7">
          <mxGeometry relative="1" as="geometry">
            <Array as="points" />
          </mxGeometry>
        </mxCell>
        <mxCell id="DTjPPuVU_EcfSdGKcNvC-24" value="" style="curved=1;startArrow=none;endArrow=block;exitX=0.5;exitY=1;entryX=0.5;entryY=0;rounded=0;" edge="1" parent="1" source="DTjPPuVU_EcfSdGKcNvC-10" target="DTjPPuVU_EcfSdGKcNvC-11">
          <mxGeometry relative="1" as="geometry">
            <Array as="points" />
          </mxGeometry>
        </mxCell>
        <mxCell id="DTjPPuVU_EcfSdGKcNvC-27" value="" style="curved=1;startArrow=none;endArrow=block;exitX=0.5;exitY=1;entryX=0;entryY=0.29;rounded=0;" edge="1" parent="1" source="DTjPPuVU_EcfSdGKcNvC-8" target="DTjPPuVU_EcfSdGKcNvC-14">
          <mxGeometry relative="1" as="geometry">
            <Array as="points">
              <mxPoint x="140" y="763" />
            </Array>
          </mxGeometry>
        </mxCell>
        <mxCell id="DTjPPuVU_EcfSdGKcNvC-28" value="" style="curved=1;startArrow=none;endArrow=block;exitX=0.5;exitY=1;entryX=0.1;entryY=0;rounded=0;" edge="1" parent="1" source="DTjPPuVU_EcfSdGKcNvC-9" target="DTjPPuVU_EcfSdGKcNvC-14">
          <mxGeometry relative="1" as="geometry">
            <Array as="points">
              <mxPoint x="450" y="763" />
            </Array>
          </mxGeometry>
        </mxCell>
        <mxCell id="DTjPPuVU_EcfSdGKcNvC-29" value="" style="curved=1;startArrow=none;endArrow=block;exitX=0.5;exitY=1;entryX=0.9;entryY=0;rounded=0;" edge="1" parent="1" source="DTjPPuVU_EcfSdGKcNvC-12" target="DTjPPuVU_EcfSdGKcNvC-14">
          <mxGeometry relative="1" as="geometry">
            <Array as="points">
              <mxPoint x="760" y="763" />
            </Array>
          </mxGeometry>
        </mxCell>
        <mxCell id="DTjPPuVU_EcfSdGKcNvC-30" value="" style="curved=1;startArrow=none;endArrow=block;exitX=0.5;exitY=1;entryX=1;entryY=0.28;rounded=0;" edge="1" parent="1" source="DTjPPuVU_EcfSdGKcNvC-13" target="DTjPPuVU_EcfSdGKcNvC-14">
          <mxGeometry relative="1" as="geometry">
            <Array as="points">
              <mxPoint x="1040" y="763" />
            </Array>
          </mxGeometry>
        </mxCell>
      </root>
    </mxGraphModel>
  </diagram>
</mxfile>
